<?xml version="1.0" encoding="UTF-8" standalone="no"?>
<!DOCTYPE svg PUBLIC "-//W3C//DTD SVG 1.1//EN"
 "http://www.w3.org/Graphics/SVG/1.1/DTD/svg11.dtd">
<!-- Generated by graphviz version 2.43.0 (0)
 -->
<!-- Title: TaskDecomposition Pages: 1 -->
<svg width="1212pt" height="1684pt"
 viewBox="0.00 0.00 1212.00 1684.00" xmlns="http://www.w3.org/2000/svg" xmlns:xlink="http://www.w3.org/1999/xlink">
<g id="graph0" class="graph" transform="scale(1 1) rotate(0) translate(18 1666)">
<title>TaskDecomposition</title>
<polygon fill="white" stroke="transparent" points="-18,18 -18,-1666 1194,-1666 1194,18 -18,18"/>
<text text-anchor="middle" x="588" y="-1628" font-family="Noto Sans CJK SC" font-size="20.00">当前 Robot Agent 任务拆分流程（2026&#45;09&#45;11）</text>
<g id="clust1" class="cluster">
<title>cluster_entry</title>
<polygon fill="white" stroke="#b9c4ce" points="8,-1203 8,-1285 364,-1285 364,-1203 8,-1203"/>
<text text-anchor="middle" x="186" y="-1265" font-family="Noto Sans CJK SC" font-size="20.00">1. 入口</text>
</g>
<g id="clust2" class="cluster">
<title>cluster_input</title>
<polygon fill="white" stroke="#b9c4ce" points="162,-934 162,-1182 326,-1182 326,-934 162,-934"/>
<text text-anchor="middle" x="244" y="-1162" font-family="Noto Sans CJK SC" font-size="20.00">2. 输入与上下文</text>
</g>
<g id="clust3" class="cluster">
<title>cluster_model</title>
<polygon fill="white" stroke="#b9c4ce" points="306,-523 306,-913 438,-913 438,-523 306,-523"/>
<text text-anchor="middle" x="372" y="-893" font-family="Noto Sans CJK SC" font-size="20.00">3. 模型规划</text>
</g>
<g id="clust4" class="cluster">
<title>cluster_validate</title>
<polygon fill="white" stroke="#b9c4ce" points="691,-8 691,-502 956,-502 956,-8 691,-8"/>
<text text-anchor="middle" x="823.5" y="-482" font-family="Noto Sans CJK SC" font-size="20.00">4. 确定性校验</text>
</g>
<g id="clust5" class="cluster">
<title>cluster_output</title>
<polygon fill="white" stroke="#b9c4ce" points="899,-1100 899,-1610 1146,-1610 1146,-1100 899,-1100"/>
<text text-anchor="middle" x="1022.5" y="-1590" font-family="Noto Sans CJK SC" font-size="20.00">5. 输出</text>
</g>
<g id="clust6" class="cluster">
<title>cluster_replan</title>
<polygon fill="white" stroke="#b9c4ce" points="429,-1306 429,-1610 890,-1610 890,-1306 429,-1306"/>
<text text-anchor="middle" x="659.5" y="-1590" font-family="Noto Sans CJK SC" font-size="20.00">6. 有界重规划</text>
</g>
<!-- agent -->
<g id="node1" class="node">
<title>agent</title>
<path fill="#e7f5ee" stroke="#287a55" d="M81.5,-1247C81.5,-1247 28.5,-1247 28.5,-1247 22.5,-1247 16.5,-1241 16.5,-1235 16.5,-1235 16.5,-1223 16.5,-1223 16.5,-1217 22.5,-1211 28.5,-1211 28.5,-1211 81.5,-1211 81.5,-1211 87.5,-1211 93.5,-1217 93.5,-1223 93.5,-1223 93.5,-1235 93.5,-1235 93.5,-1241 87.5,-1247 81.5,-1247"/>
<text text-anchor="middle" x="55" y="-1232.2" font-family="Noto Sans CJK SC" font-size="11.00">CLI agent</text>
<text text-anchor="middle" x="55" y="-1220.2" font-family="Noto Sans CJK SC" font-size="11.00">生成并提交</text>
</g>
<!-- goal -->
<g id="node4" class="node">
<title>goal</title>
<path fill="#e7f5ee" stroke="#287a55" d="M253,-1144C253,-1144 187,-1144 187,-1144 181,-1144 175,-1138 175,-1132 175,-1132 175,-1120 175,-1120 175,-1114 181,-1108 187,-1108 187,-1108 253,-1108 253,-1108 259,-1108 265,-1114 265,-1120 265,-1120 265,-1132 265,-1132 265,-1138 259,-1144 253,-1144"/>
<text text-anchor="middle" x="220" y="-1123.2" font-family="Noto Sans CJK SC" font-size="11.00">自然语言 goal</text>
</g>
<!-- agent&#45;&gt;goal -->
<g id="edge1" class="edge">
<title>agent&#45;&gt;goal</title>
<path fill="none" stroke="#52606d" d="M82.99,-1210.87C111.28,-1193.55 155.06,-1166.75 185.49,-1148.13"/>
<polygon fill="#52606d" stroke="#52606d" points="187.12,-1150.2 192.15,-1144.05 184.38,-1145.73 187.12,-1150.2"/>
</g>
<!-- plan -->
<g id="node2" class="node">
<title>plan</title>
<path fill="#e7f5ee" stroke="#287a55" d="M183.5,-1247C183.5,-1247 130.5,-1247 130.5,-1247 124.5,-1247 118.5,-1241 118.5,-1235 118.5,-1235 118.5,-1223 118.5,-1223 118.5,-1217 124.5,-1211 130.5,-1211 130.5,-1211 183.5,-1211 183.5,-1211 189.5,-1211 195.5,-1217 195.5,-1223 195.5,-1223 195.5,-1235 195.5,-1235 195.5,-1241 189.5,-1247 183.5,-1247"/>
<text text-anchor="middle" x="157" y="-1232.2" font-family="Noto Sans CJK SC" font-size="11.00">CLI plan</text>
<text text-anchor="middle" x="157" y="-1220.2" font-family="Noto Sans CJK SC" font-size="11.00">只生成计划</text>
</g>
<!-- plan&#45;&gt;goal -->
<g id="edge2" class="edge">
<title>plan&#45;&gt;goal</title>
<path fill="none" stroke="#52606d" d="M167.69,-1210.87C178,-1194.33 193.72,-1169.14 205.23,-1150.68"/>
<polygon fill="#52606d" stroke="#52606d" points="207.52,-1151.97 209.26,-1144.22 203.06,-1149.19 207.52,-1151.97"/>
</g>
<!-- recover -->
<g id="node3" class="node">
<title>recover</title>
<path fill="#e7f5ee" stroke="#287a55" d="M343.5,-1247C343.5,-1247 232.5,-1247 232.5,-1247 226.5,-1247 220.5,-1241 220.5,-1235 220.5,-1235 220.5,-1223 220.5,-1223 220.5,-1217 226.5,-1211 232.5,-1211 232.5,-1211 343.5,-1211 343.5,-1211 349.5,-1211 355.5,-1217 355.5,-1223 355.5,-1223 355.5,-1235 355.5,-1235 355.5,-1241 349.5,-1247 343.5,-1247"/>
<text text-anchor="middle" x="288" y="-1232.2" font-family="Noto Sans CJK SC" font-size="11.00">Runtime.recover_plan</text>
<text text-anchor="middle" x="288" y="-1220.2" font-family="Noto Sans CJK SC" font-size="11.00">失败后重规划</text>
</g>
<!-- recover&#45;&gt;goal -->
<g id="edge3" class="edge">
<title>recover&#45;&gt;goal</title>
<path fill="none" stroke="#52606d" d="M276.46,-1210.87C265.33,-1194.33 248.37,-1169.14 235.95,-1150.68"/>
<polygon fill="#52606d" stroke="#52606d" points="237.96,-1148.97 231.59,-1144.22 233.6,-1151.9 237.96,-1148.97"/>
</g>
<!-- catalog -->
<g id="node5" class="node">
<title>catalog</title>
<path fill="#e7f5ee" stroke="#287a55" d="M277.5,-1067C277.5,-1067 190.5,-1067 190.5,-1067 184.5,-1067 178.5,-1061 178.5,-1055 178.5,-1055 178.5,-1043 178.5,-1043 178.5,-1037 184.5,-1031 190.5,-1031 190.5,-1031 277.5,-1031 277.5,-1031 283.5,-1031 289.5,-1037 289.5,-1043 289.5,-1043 289.5,-1055 289.5,-1055 289.5,-1061 283.5,-1067 277.5,-1067"/>
<text text-anchor="middle" x="234" y="-1052.2" font-family="Noto Sans CJK SC" font-size="11.00">Skill Catalog</text>
<text text-anchor="middle" x="234" y="-1040.2" font-family="Noto Sans CJK SC" font-size="11.00">裁剪为可规划能力</text>
</g>
<!-- goal&#45;&gt;catalog -->
<g id="edge4" class="edge">
<title>goal&#45;&gt;catalog</title>
<path fill="none" stroke="#52606d" d="M223.18,-1107.98C225.01,-1098.17 227.34,-1085.67 229.37,-1074.79"/>
<polygon fill="#52606d" stroke="#52606d" points="231.99,-1075.07 230.79,-1067.21 226.83,-1074.1 231.99,-1075.07"/>
</g>
<!-- context -->
<g id="node6" class="node">
<title>context</title>
<path fill="#e7f5ee" stroke="#287a55" d="M305.5,-990C305.5,-990 182.5,-990 182.5,-990 176.5,-990 170.5,-984 170.5,-978 170.5,-978 170.5,-954 170.5,-954 170.5,-948 176.5,-942 182.5,-942 182.5,-942 305.5,-942 305.5,-942 311.5,-942 317.5,-948 317.5,-954 317.5,-954 317.5,-978 317.5,-978 317.5,-984 311.5,-990 305.5,-990"/>
<text text-anchor="middle" x="244" y="-975.2" font-family="Noto Sans CJK SC" font-size="11.00">首次：无自动上下文</text>
<text text-anchor="middle" x="244" y="-963.2" font-family="Noto Sans CJK SC" font-size="11.00">重规划：previous_plan +</text>
<text text-anchor="middle" x="244" y="-951.2" font-family="Noto Sans CJK SC" font-size="11.00">step_results + revision</text>
</g>
<!-- catalog&#45;&gt;context -->
<g id="edge5" class="edge">
<title>catalog&#45;&gt;context</title>
<path fill="none" stroke="#52606d" d="M236.12,-1030.82C237.3,-1021.24 238.81,-1009.01 240.19,-997.83"/>
<polygon fill="#52606d" stroke="#52606d" points="242.81,-998.06 241.12,-990.3 237.6,-997.42 242.81,-998.06"/>
</g>
<!-- config -->
<g id="node7" class="node">
<title>config</title>
<path fill="#e7f5ee" stroke="#287a55" d="M413,-875C413,-875 327,-875 327,-875 321,-875 315,-869 315,-863 315,-863 315,-851 315,-851 315,-845 321,-839 327,-839 327,-839 413,-839 413,-839 419,-839 425,-845 425,-851 425,-851 425,-863 425,-863 425,-869 419,-875 413,-875"/>
<text text-anchor="middle" x="370" y="-854.2" font-family="Noto Sans CJK SC" font-size="11.00">验证 ModelConfig</text>
</g>
<!-- context&#45;&gt;config -->
<g id="edge6" class="edge">
<title>context&#45;&gt;config</title>
<path fill="none" stroke="#52606d" d="M271.34,-941.78C292.91,-923.47 322.79,-898.09 344,-880.08"/>
<polygon fill="#52606d" stroke="#52606d" points="345.72,-882.06 349.74,-875.2 342.32,-878.06 345.72,-882.06"/>
</g>
<!-- record -->
<g id="node8" class="node">
<title>record</title>
<path fill="#e7f5ee" stroke="#287a55" d="M416,-798C416,-798 326,-798 326,-798 320,-798 314,-792 314,-786 314,-786 314,-774 314,-774 314,-768 320,-762 326,-762 326,-762 416,-762 416,-762 422,-762 428,-768 428,-774 428,-774 428,-786 428,-786 428,-792 422,-798 416,-798"/>
<text text-anchor="middle" x="371" y="-783.2" font-family="Noto Sans CJK SC" font-size="11.00">model_responses</text>
<text text-anchor="middle" x="371" y="-771.2" font-family="Noto Sans CJK SC" font-size="11.00">status=requesting</text>
</g>
<!-- config&#45;&gt;record -->
<g id="edge7" class="edge">
<title>config&#45;&gt;record</title>
<path fill="none" stroke="#52606d" d="M370.23,-838.98C370.36,-829.17 370.52,-816.67 370.67,-805.79"/>
<polygon fill="#52606d" stroke="#52606d" points="373.3,-805.75 370.77,-798.21 368.05,-805.68 373.3,-805.75"/>
</g>
<!-- prompt -->
<g id="node9" class="node">
<title>prompt</title>
<path fill="#e7f5ee" stroke="#287a55" d="M411.5,-721C411.5,-721 330.5,-721 330.5,-721 324.5,-721 318.5,-715 318.5,-709 318.5,-709 318.5,-697 318.5,-697 318.5,-691 324.5,-685 330.5,-685 330.5,-685 411.5,-685 411.5,-685 417.5,-685 423.5,-691 423.5,-697 423.5,-697 423.5,-709 423.5,-709 423.5,-715 417.5,-721 411.5,-721"/>
<text text-anchor="middle" x="371" y="-706.2" font-family="Noto Sans CJK SC" font-size="11.00">PlanningMethod</text>
<text text-anchor="middle" x="371" y="-694.2" font-family="Noto Sans CJK SC" font-size="11.00">要求 JSON DAG</text>
</g>
<!-- record&#45;&gt;prompt -->
<g id="edge8" class="edge">
<title>record&#45;&gt;prompt</title>
<path fill="none" stroke="#52606d" d="M371,-761.98C371,-752.17 371,-739.67 371,-728.79"/>
<polygon fill="#52606d" stroke="#52606d" points="373.63,-728.71 371,-721.21 368.38,-728.71 373.63,-728.71"/>
</g>
<!-- budget -->
<g id="node10" class="node">
<title>budget</title>
<path fill="#e7f5ee" stroke="#287a55" d="M417.5,-644C417.5,-644 326.5,-644 326.5,-644 320.5,-644 314.5,-638 314.5,-632 314.5,-632 314.5,-620 314.5,-620 314.5,-614 320.5,-608 326.5,-608 326.5,-608 417.5,-608 417.5,-608 423.5,-608 429.5,-614 429.5,-620 429.5,-620 429.5,-632 429.5,-632 429.5,-638 423.5,-644 417.5,-644"/>
<text text-anchor="middle" x="372" y="-629.2" font-family="Noto Sans CJK SC" font-size="11.00">ContextAllocator</text>
<text text-anchor="middle" x="372" y="-617.2" font-family="Noto Sans CJK SC" font-size="11.00">分配输入/输出预算</text>
</g>
<!-- prompt&#45;&gt;budget -->
<g id="edge9" class="edge">
<title>prompt&#45;&gt;budget</title>
<path fill="none" stroke="#52606d" d="M371.23,-684.98C371.36,-675.17 371.52,-662.67 371.67,-651.79"/>
<polygon fill="#52606d" stroke="#52606d" points="374.3,-651.75 371.77,-644.21 369.05,-651.68 374.3,-651.75"/>
</g>
<!-- request -->
<g id="node11" class="node">
<title>request</title>
<path fill="#e7f5ee" stroke="#287a55" d="M417.5,-567C417.5,-567 328.5,-567 328.5,-567 322.5,-567 316.5,-561 316.5,-555 316.5,-555 316.5,-543 316.5,-543 316.5,-537 322.5,-531 328.5,-531 328.5,-531 417.5,-531 417.5,-531 423.5,-531 429.5,-537 429.5,-543 429.5,-543 429.5,-555 429.5,-555 429.5,-561 423.5,-567 417.5,-567"/>
<text text-anchor="middle" x="373" y="-552.2" font-family="Noto Sans CJK SC" font-size="11.00">Chat Completions</text>
<text text-anchor="middle" x="373" y="-540.2" font-family="Noto Sans CJK SC" font-size="11.00">实际 HTTP 请求</text>
</g>
<!-- budget&#45;&gt;request -->
<g id="edge10" class="edge">
<title>budget&#45;&gt;request</title>
<path fill="none" stroke="#52606d" d="M372.23,-607.98C372.36,-598.17 372.52,-585.67 372.67,-574.79"/>
<polygon fill="#52606d" stroke="#52606d" points="375.3,-574.75 372.77,-567.21 370.05,-574.68 375.3,-574.75"/>
</g>
<!-- response -->
<g id="node12" class="node">
<title>response</title>
<path fill="#fff4d6" stroke="#a66b00" d="M772.95,-459.32C772.95,-459.32 710.05,-432.68 710.05,-432.68 704.52,-430.34 704.52,-425.66 710.05,-423.32 710.05,-423.32 772.95,-396.68 772.95,-396.68 778.48,-394.34 789.52,-394.34 795.05,-396.68 795.05,-396.68 857.95,-423.32 857.95,-423.32 863.48,-425.66 863.48,-430.34 857.95,-432.68 857.95,-432.68 795.05,-459.32 795.05,-459.32 789.52,-461.66 778.48,-461.66 772.95,-459.32"/>
<text text-anchor="middle" x="784" y="-431.2" font-family="Noto Sans CJK SC" font-size="11.00">HTTP 与响应</text>
<text text-anchor="middle" x="784" y="-419.2" font-family="Noto Sans CJK SC" font-size="11.00">完整有效？</text>
</g>
<!-- request&#45;&gt;response -->
<g id="edge11" class="edge">
<title>request&#45;&gt;response</title>
<path fill="none" stroke="#52606d" d="M429.72,-531.58C508.11,-508.88 648.78,-468.15 727.22,-445.44"/>
<polygon fill="#52606d" stroke="#52606d" points="728.13,-447.91 734.61,-443.3 726.67,-442.87 728.13,-447.91"/>
</g>
<!-- json -->
<g id="node13" class="node">
<title>json</title>
<path fill="#e7f5ee" stroke="#287a55" d="M837.5,-341C837.5,-341 786.5,-341 786.5,-341 780.5,-341 774.5,-335 774.5,-329 774.5,-329 774.5,-317 774.5,-317 774.5,-311 780.5,-305 786.5,-305 786.5,-305 837.5,-305 837.5,-305 843.5,-305 849.5,-311 849.5,-317 849.5,-317 849.5,-329 849.5,-329 849.5,-335 843.5,-341 837.5,-341"/>
<text text-anchor="middle" x="812" y="-320.2" font-family="Noto Sans CJK SC" font-size="11.00">解析 JSON</text>
</g>
<!-- response&#45;&gt;json -->
<g id="edge13" class="edge">
<title>response&#45;&gt;json</title>
<path fill="none" stroke="#52606d" d="M792.55,-395.54C796.65,-380.46 801.49,-362.67 805.31,-348.61"/>
<polygon fill="#52606d" stroke="#52606d" points="807.89,-349.14 807.32,-341.21 802.82,-347.76 807.89,-349.14"/>
<text text-anchor="middle" x="806" y="-364" font-family="Noto Sans CJK SC" font-size="10.00">是</text>
</g>
<!-- rejected -->
<g id="node17" class="node">
<title>rejected</title>
<path fill="#fde8e7" stroke="#b33a32" d="M808.5,-52C808.5,-52 715.5,-52 715.5,-52 709.5,-52 703.5,-46 703.5,-40 703.5,-40 703.5,-28 703.5,-28 703.5,-22 709.5,-16 715.5,-16 715.5,-16 808.5,-16 808.5,-16 814.5,-16 820.5,-22 820.5,-28 820.5,-28 820.5,-40 820.5,-40 820.5,-46 814.5,-52 808.5,-52"/>
<text text-anchor="middle" x="762" y="-37.2" font-family="Noto Sans CJK SC" font-size="11.00">记录 rejected</text>
<text text-anchor="middle" x="762" y="-25.2" font-family="Noto Sans CJK SC" font-size="11.00">抛出 ContractError</text>
</g>
<!-- response&#45;&gt;rejected -->
<g id="edge12" class="edge">
<title>response&#45;&gt;rejected</title>
<path fill="none" stroke="#52606d" d="M772.55,-396.54C755.65,-349.73 724.85,-256.92 714,-175 709.8,-143.28 704.32,-133.5 714,-103 719.3,-86.31 730.33,-70.19 740.49,-57.83"/>
<polygon fill="#52606d" stroke="#52606d" points="742.52,-59.5 745.38,-52.08 738.52,-56.1 742.52,-59.5"/>
<text text-anchor="middle" x="736" y="-237.5" font-family="Noto Sans CJK SC" font-size="10.00">否</text>
</g>
<!-- dag -->
<g id="node14" class="node">
<title>dag</title>
<path fill="#e7f5ee" stroke="#287a55" d="M901.5,-264C901.5,-264 772.5,-264 772.5,-264 766.5,-264 760.5,-258 760.5,-252 760.5,-252 760.5,-228 760.5,-228 760.5,-222 766.5,-216 772.5,-216 772.5,-216 901.5,-216 901.5,-216 907.5,-216 913.5,-222 913.5,-228 913.5,-228 913.5,-252 913.5,-252 913.5,-258 907.5,-264 901.5,-264"/>
<text text-anchor="middle" x="837" y="-249.2" font-family="Noto Sans CJK SC" font-size="11.00">validate_plan</text>
<text text-anchor="middle" x="837" y="-237.2" font-family="Noto Sans CJK SC" font-size="11.00">步骤/技能/依赖/DAG/$ref/</text>
<text text-anchor="middle" x="837" y="-225.2" font-family="Noto Sans CJK SC" font-size="11.00">重试/fallback/verification</text>
</g>
<!-- json&#45;&gt;dag -->
<g id="edge14" class="edge">
<title>json&#45;&gt;dag</title>
<path fill="none" stroke="#52606d" d="M817.3,-304.82C820.29,-295.15 824.11,-282.78 827.58,-271.51"/>
<polygon fill="#52606d" stroke="#52606d" points="830.11,-272.24 829.81,-264.3 825.09,-270.69 830.11,-272.24"/>
</g>
<!-- verifier -->
<g id="node15" class="node">
<title>verifier</title>
<path fill="#fff4d6" stroke="#a66b00" d="M825.59,-171.3C825.59,-171.3 737.41,-142.7 737.41,-142.7 731.71,-140.85 731.71,-137.15 737.41,-135.3 737.41,-135.3 825.59,-106.7 825.59,-106.7 831.29,-104.85 842.71,-104.85 848.41,-106.7 848.41,-106.7 936.59,-135.3 936.59,-135.3 942.29,-137.15 942.29,-140.85 936.59,-142.7 936.59,-142.7 848.41,-171.3 848.41,-171.3 842.71,-173.15 831.29,-173.15 825.59,-171.3"/>
<text text-anchor="middle" x="837" y="-142.2" font-family="Noto Sans CJK SC" font-size="11.00">最终步骤是注册的</text>
<text text-anchor="middle" x="837" y="-130.2" font-family="Noto Sans CJK SC" font-size="11.00">verifier 技能？</text>
</g>
<!-- dag&#45;&gt;verifier -->
<g id="edge15" class="edge">
<title>dag&#45;&gt;verifier</title>
<path fill="none" stroke="#52606d" d="M837,-215.79C837,-205.94 837,-194.15 837,-182.82"/>
<polygon fill="#52606d" stroke="#52606d" points="839.63,-182.59 837,-175.09 834.38,-182.59 839.63,-182.59"/>
</g>
<!-- validated -->
<g id="node16" class="node">
<title>validated</title>
<path fill="#e7f5ee" stroke="#287a55" d="M929,-52C929,-52 861,-52 861,-52 855,-52 849,-46 849,-40 849,-40 849,-28 849,-28 849,-22 855,-16 861,-16 861,-16 929,-16 929,-16 935,-16 941,-22 941,-28 941,-28 941,-40 941,-40 941,-46 935,-52 929,-52"/>
<text text-anchor="middle" x="895" y="-37.2" font-family="Noto Sans CJK SC" font-size="11.00">记录 validated</text>
<text text-anchor="middle" x="895" y="-25.2" font-family="Noto Sans CJK SC" font-size="11.00">返回 Plan</text>
</g>
<!-- verifier&#45;&gt;validated -->
<g id="edge17" class="edge">
<title>verifier&#45;&gt;validated</title>
<path fill="none" stroke="#52606d" d="M853.78,-108.21C862.57,-92.58 873.21,-73.7 881.47,-59.02"/>
<polygon fill="#52606d" stroke="#52606d" points="883.93,-60.01 885.32,-52.19 879.35,-57.43 883.93,-60.01"/>
<text text-anchor="middle" x="877" y="-75" font-family="Noto Sans CJK SC" font-size="10.00">是</text>
</g>
<!-- verifier&#45;&gt;rejected -->
<g id="edge16" class="edge">
<title>verifier&#45;&gt;rejected</title>
<path fill="none" stroke="#52606d" d="M816.31,-109.58C804.55,-93.43 790,-73.46 778.93,-58.25"/>
<polygon fill="#52606d" stroke="#52606d" points="780.95,-56.56 774.41,-52.05 776.71,-59.66 780.95,-56.56"/>
<text text-anchor="middle" x="800" y="-75" font-family="Noto Sans CJK SC" font-size="10.00">否</text>
</g>
<!-- route -->
<g id="node18" class="node">
<title>route</title>
<path fill="#fff4d6" stroke="#a66b00" d="M1011.35,-1569.13C1011.35,-1569.13 961.55,-1556.87 961.55,-1556.87 955.73,-1555.43 955.73,-1552.57 961.55,-1551.13 961.55,-1551.13 1011.35,-1538.87 1011.35,-1538.87 1017.17,-1537.43 1028.83,-1537.43 1034.65,-1538.87 1034.65,-1538.87 1084.45,-1551.13 1084.45,-1551.13 1090.27,-1552.57 1090.27,-1555.43 1084.45,-1556.87 1084.45,-1556.87 1034.65,-1569.13 1034.65,-1569.13 1028.83,-1570.57 1017.17,-1570.57 1011.35,-1569.13"/>
<text text-anchor="middle" x="1023" y="-1551.2" font-family="Noto Sans CJK SC" font-size="11.00">调用入口？</text>
</g>
<!-- validated&#45;&gt;route -->
<g id="edge18" class="edge">
<title>validated&#45;&gt;route</title>
<path fill="none" stroke="#52606d" d="M941.09,-42.11C1020.81,-55.73 1176,-88.57 1176,-138 1176,-1450 1176,-1450 1176,-1450 1176,-1502.63 1112.94,-1530.13 1067.79,-1543.08"/>
<polygon fill="#52606d" stroke="#52606d" points="1066.96,-1540.59 1060.43,-1545.11 1068.36,-1545.65 1066.96,-1540.59"/>
</g>
<!-- print -->
<g id="node19" class="node">
<title>print</title>
<path fill="#e7f5ee" stroke="#287a55" d="M979,-1467C979,-1467 919,-1467 919,-1467 913,-1467 907,-1461 907,-1455 907,-1455 907,-1443 907,-1443 907,-1437 913,-1431 919,-1431 919,-1431 979,-1431 979,-1431 985,-1431 991,-1437 991,-1443 991,-1443 991,-1455 991,-1455 991,-1461 985,-1467 979,-1467"/>
<text text-anchor="middle" x="949" y="-1452.2" font-family="Noto Sans CJK SC" font-size="11.00">CLI 输出计划</text>
<text text-anchor="middle" x="949" y="-1440.2" font-family="Noto Sans CJK SC" font-size="11.00">不创建 Task</text>
</g>
<!-- route&#45;&gt;print -->
<g id="edge19" class="edge">
<title>route&#45;&gt;print</title>
<path fill="none" stroke="#52606d" d="M1012.4,-1538.24C1000.21,-1521.28 980.05,-1493.21 965.73,-1473.29"/>
<polygon fill="#52606d" stroke="#52606d" points="967.82,-1471.69 961.31,-1467.13 963.55,-1474.76 967.82,-1471.69"/>
<text text-anchor="middle" x="1005" y="-1508" font-family="Noto Sans CJK SC" font-size="10.00">plan</text>
</g>
<!-- submit -->
<g id="node20" class="node">
<title>submit</title>
<path fill="#e7f5ee" stroke="#287a55" d="M1126,-1467C1126,-1467 1028,-1467 1028,-1467 1022,-1467 1016,-1461 1016,-1455 1016,-1455 1016,-1443 1016,-1443 1016,-1437 1022,-1431 1028,-1431 1028,-1431 1126,-1431 1126,-1431 1132,-1431 1138,-1437 1138,-1443 1138,-1443 1138,-1455 1138,-1455 1138,-1461 1132,-1467 1126,-1467"/>
<text text-anchor="middle" x="1077" y="-1452.2" font-family="Noto Sans CJK SC" font-size="11.00">Runtime.submit</text>
<text text-anchor="middle" x="1077" y="-1440.2" font-family="Noto Sans CJK SC" font-size="11.00">再次校验目录与资源</text>
</g>
<!-- route&#45;&gt;submit -->
<g id="edge20" class="edge">
<title>route&#45;&gt;submit</title>
<path fill="none" stroke="#52606d" d="M1030.97,-1537.8C1039.75,-1521.06 1053.99,-1493.89 1064.31,-1474.21"/>
<polygon fill="#52606d" stroke="#52606d" points="1066.76,-1475.19 1067.92,-1467.33 1062.11,-1472.75 1066.76,-1475.19"/>
<text text-anchor="middle" x="1059.5" y="-1508" font-family="Noto Sans CJK SC" font-size="10.00">agent</text>
</g>
<!-- revise -->
<g id="node27" class="node">
<title>revise</title>
<path fill="#e7f5ee" stroke="#287a55" d="M869.5,-1467C869.5,-1467 718.5,-1467 718.5,-1467 712.5,-1467 706.5,-1461 706.5,-1455 706.5,-1455 706.5,-1443 706.5,-1443 706.5,-1437 712.5,-1431 718.5,-1431 718.5,-1431 869.5,-1431 869.5,-1431 875.5,-1431 881.5,-1437 881.5,-1443 881.5,-1443 881.5,-1455 881.5,-1455 881.5,-1461 875.5,-1467 869.5,-1467"/>
<text text-anchor="middle" x="794" y="-1452.2" font-family="Noto Sans CJK SC" font-size="11.00">Runtime.revise</text>
<text text-anchor="middle" x="794" y="-1440.2" font-family="Noto Sans CJK SC" font-size="11.00">停止/generation/取消竞争校验</text>
</g>
<!-- route&#45;&gt;revise -->
<g id="edge29" class="edge">
<title>route&#45;&gt;revise</title>
<path fill="none" stroke="#52606d" d="M993.32,-1543.06C973.23,-1536.07 946.22,-1526.19 923,-1516 891.63,-1502.23 857.12,-1484.43 831.7,-1470.79"/>
<polygon fill="#52606d" stroke="#52606d" points="832.63,-1468.3 824.78,-1467.06 830.14,-1472.93 832.63,-1468.3"/>
<text text-anchor="middle" x="953.5" y="-1508" font-family="Noto Sans CJK SC" font-size="10.00">recover_plan</text>
</g>
<!-- freeze -->
<g id="node21" class="node">
<title>freeze</title>
<path fill="#e7f5ee" stroke="#287a55" d="M1106,-1356C1106,-1356 980,-1356 980,-1356 974,-1356 968,-1350 968,-1344 968,-1344 968,-1332 968,-1332 968,-1326 974,-1320 980,-1320 980,-1320 1106,-1320 1106,-1320 1112,-1320 1118,-1326 1118,-1332 1118,-1332 1118,-1344 1118,-1344 1118,-1350 1112,-1356 1106,-1356"/>
<text text-anchor="middle" x="1043" y="-1341.2" font-family="Noto Sans CJK SC" font-size="11.00">冻结 plan + catalog</text>
<text text-anchor="middle" x="1043" y="-1329.2" font-family="Noto Sans CJK SC" font-size="11.00">revision=0 / generation=0</text>
</g>
<!-- submit&#45;&gt;freeze -->
<g id="edge21" class="edge">
<title>submit&#45;&gt;freeze</title>
<path fill="none" stroke="#52606d" d="M1071.69,-1430.97C1066.03,-1412.84 1057.03,-1383.98 1050.62,-1363.43"/>
<polygon fill="#52606d" stroke="#52606d" points="1053.13,-1362.65 1048.39,-1356.27 1048.11,-1364.21 1053.13,-1362.65"/>
</g>
<!-- queued -->
<g id="node22" class="node">
<title>queued</title>
<path fill="#e7f5ee" stroke="#287a55" d="M1081.5,-1247C1081.5,-1247 984.5,-1247 984.5,-1247 978.5,-1247 972.5,-1241 972.5,-1235 972.5,-1235 972.5,-1223 972.5,-1223 972.5,-1217 978.5,-1211 984.5,-1211 984.5,-1211 1081.5,-1211 1081.5,-1211 1087.5,-1211 1093.5,-1217 1093.5,-1223 1093.5,-1223 1093.5,-1235 1093.5,-1235 1093.5,-1241 1087.5,-1247 1081.5,-1247"/>
<text text-anchor="middle" x="1033" y="-1232.2" font-family="Noto Sans CJK SC" font-size="11.00">持久化 queued Task</text>
<text text-anchor="middle" x="1033" y="-1220.2" font-family="Noto Sans CJK SC" font-size="11.00">写 submitted 事件</text>
</g>
<!-- freeze&#45;&gt;queued -->
<g id="edge22" class="edge">
<title>freeze&#45;&gt;queued</title>
<path fill="none" stroke="#52606d" d="M1041.39,-1319.81C1039.75,-1302.18 1037.17,-1274.6 1035.3,-1254.65"/>
<polygon fill="#52606d" stroke="#52606d" points="1037.91,-1254.37 1034.6,-1247.15 1032.69,-1254.86 1037.91,-1254.37"/>
</g>
<!-- execute -->
<g id="node23" class="node">
<title>execute</title>
<path fill="#e9efff" stroke="#3f63a8" d="M1048.5,-1144C1048.5,-1144 919.5,-1144 919.5,-1144 913.5,-1144 907.5,-1138 907.5,-1132 907.5,-1132 907.5,-1120 907.5,-1120 907.5,-1114 913.5,-1108 919.5,-1108 919.5,-1108 1048.5,-1108 1048.5,-1108 1054.5,-1108 1060.5,-1114 1060.5,-1120 1060.5,-1120 1060.5,-1132 1060.5,-1132 1060.5,-1138 1054.5,-1144 1048.5,-1144"/>
<text text-anchor="middle" x="984" y="-1129.2" font-family="Noto Sans CJK SC" font-size="11.00">DBOS / Runtime 执行 DAG</text>
<text text-anchor="middle" x="984" y="-1117.2" font-family="Noto Sans CJK SC" font-size="11.00">任务拆分阶段结束</text>
</g>
<!-- queued&#45;&gt;execute -->
<g id="edge23" class="edge">
<title>queued&#45;&gt;execute</title>
<path fill="none" stroke="#52606d" d="M1024.69,-1210.87C1016.73,-1194.47 1004.66,-1169.58 995.73,-1151.17"/>
<polygon fill="#52606d" stroke="#52606d" points="997.99,-1149.82 992.35,-1144.22 993.26,-1152.11 997.99,-1149.82"/>
</g>
<!-- failed -->
<g id="node24" class="node">
<title>failed</title>
<path fill="#e7f5ee" stroke="#287a55" d="M556,-1572C556,-1572 466,-1572 466,-1572 460,-1572 454,-1566 454,-1560 454,-1560 454,-1548 454,-1548 454,-1542 460,-1536 466,-1536 466,-1536 556,-1536 556,-1536 562,-1536 568,-1542 568,-1548 568,-1548 568,-1560 568,-1560 568,-1566 562,-1572 556,-1572"/>
<text text-anchor="middle" x="511" y="-1551.2" font-family="Noto Sans CJK SC" font-size="11.00">执行后 Task=failed</text>
</g>
<!-- execute&#45;&gt;failed -->
<g id="edge24" class="edge">
<title>execute&#45;&gt;failed</title>
<path fill="none" stroke="#52606d" stroke-dasharray="5,2" d="M907.47,-1132.24C747.83,-1144.19 394,-1176.49 394,-1228 394,-1450 394,-1450 394,-1450 394,-1488.15 429.48,-1515.52 461.36,-1532.41"/>
<polygon fill="#52606d" stroke="#52606d" points="460.23,-1534.78 468.1,-1535.85 462.62,-1530.1 460.23,-1534.78"/>
<text text-anchor="middle" x="414" y="-1335.5" font-family="Noto Sans CJK SC" font-size="10.00">执行失败</text>
</g>
<!-- quota -->
<g id="node25" class="node">
<title>quota</title>
<path fill="#fff4d6" stroke="#a66b00" d="M547.49,-1481.6C547.49,-1481.6 448.51,-1452.4 448.51,-1452.4 442.75,-1450.7 442.75,-1447.3 448.51,-1445.6 448.51,-1445.6 547.49,-1416.4 547.49,-1416.4 553.25,-1414.7 564.75,-1414.7 570.51,-1416.4 570.51,-1416.4 669.49,-1445.6 669.49,-1445.6 675.25,-1447.3 675.25,-1450.7 669.49,-1452.4 669.49,-1452.4 570.51,-1481.6 570.51,-1481.6 564.75,-1483.3 553.25,-1483.3 547.49,-1481.6"/>
<text text-anchor="middle" x="559" y="-1452.2" font-family="Noto Sans CJK SC" font-size="11.00">有 goal 且</text>
<text text-anchor="middle" x="559" y="-1440.2" font-family="Noto Sans CJK SC" font-size="11.00">重规划预算未耗尽？</text>
</g>
<!-- failed&#45;&gt;quota -->
<g id="edge25" class="edge">
<title>failed&#45;&gt;quota</title>
<path fill="none" stroke="#52606d" d="M518.93,-1535.99C525.03,-1522.89 533.7,-1504.28 541.42,-1487.73"/>
<polygon fill="#52606d" stroke="#52606d" points="543.87,-1488.68 544.66,-1480.78 539.11,-1486.47 543.87,-1488.68"/>
</g>
<!-- replanning -->
<g id="node26" class="node">
<title>replanning</title>
<path fill="#e7f5ee" stroke="#287a55" d="M552.5,-1356C552.5,-1356 471.5,-1356 471.5,-1356 465.5,-1356 459.5,-1350 459.5,-1344 459.5,-1344 459.5,-1332 459.5,-1332 459.5,-1326 465.5,-1320 471.5,-1320 471.5,-1320 552.5,-1320 552.5,-1320 558.5,-1320 564.5,-1326 564.5,-1332 564.5,-1332 564.5,-1344 564.5,-1344 564.5,-1350 558.5,-1356 552.5,-1356"/>
<text text-anchor="middle" x="512" y="-1341.2" font-family="Noto Sans CJK SC" font-size="11.00">Task=replanning</text>
<text text-anchor="middle" x="512" y="-1329.2" font-family="Noto Sans CJK SC" font-size="11.00">replans + 1</text>
</g>
<!-- quota&#45;&gt;replanning -->
<g id="edge27" class="edge">
<title>quota&#45;&gt;replanning</title>
<path fill="none" stroke="#52606d" d="M545.53,-1416.76C538.21,-1399.79 529.29,-1379.11 522.5,-1363.34"/>
<polygon fill="#52606d" stroke="#52606d" points="524.72,-1361.88 519.34,-1356.03 519.9,-1363.96 524.72,-1361.88"/>
<text text-anchor="middle" x="539" y="-1385" font-family="Noto Sans CJK SC" font-size="10.00">是</text>
</g>
<!-- stop -->
<g id="node29" class="node">
<title>stop</title>
<path fill="#fde8e7" stroke="#b33a32" d="M752,-1356C752,-1356 602,-1356 602,-1356 596,-1356 590,-1350 590,-1344 590,-1344 590,-1332 590,-1332 590,-1326 596,-1320 602,-1320 602,-1320 752,-1320 752,-1320 758,-1320 764,-1326 764,-1332 764,-1332 764,-1344 764,-1344 764,-1350 758,-1356 752,-1356"/>
<text text-anchor="middle" x="677" y="-1335.2" font-family="Noto Sans CJK SC" font-size="11.00">保持 failed / paused / canceled</text>
</g>
<!-- quota&#45;&gt;stop -->
<g id="edge26" class="edge">
<title>quota&#45;&gt;stop</title>
<path fill="none" stroke="#52606d" d="M587.87,-1421.34C607.78,-1402.94 633.95,-1378.77 652.77,-1361.38"/>
<polygon fill="#52606d" stroke="#52606d" points="654.63,-1363.23 658.36,-1356.22 651.07,-1359.38 654.63,-1363.23"/>
<text text-anchor="middle" x="633" y="-1385" font-family="Noto Sans CJK SC" font-size="10.00">否</text>
</g>
<!-- replanning&#45;&gt;recover -->
<g id="edge28" class="edge">
<title>replanning&#45;&gt;recover</title>
<path fill="none" stroke="#52606d" stroke-dasharray="5,2" d="M476.01,-1319.81C436.41,-1300.89 372.82,-1270.52 330.72,-1250.41"/>
<polygon fill="#52606d" stroke="#52606d" points="331.8,-1248.01 323.9,-1247.15 329.54,-1252.75 331.8,-1248.01"/>
</g>
<!-- revision -->
<g id="node28" class="node">
<title>revision</title>
<path fill="#e7f5ee" stroke="#287a55" d="M870.5,-1362C870.5,-1362 801.5,-1362 801.5,-1362 795.5,-1362 789.5,-1356 789.5,-1350 789.5,-1350 789.5,-1326 789.5,-1326 789.5,-1320 795.5,-1314 801.5,-1314 801.5,-1314 870.5,-1314 870.5,-1314 876.5,-1314 882.5,-1320 882.5,-1326 882.5,-1326 882.5,-1350 882.5,-1350 882.5,-1356 876.5,-1362 870.5,-1362"/>
<text text-anchor="middle" x="836" y="-1347.2" font-family="Noto Sans CJK SC" font-size="11.00">保存旧版本</text>
<text text-anchor="middle" x="836" y="-1335.2" font-family="Noto Sans CJK SC" font-size="11.00">revision + 1</text>
<text text-anchor="middle" x="836" y="-1323.2" font-family="Noto Sans CJK SC" font-size="11.00">generation + 1</text>
</g>
<!-- revise&#45;&gt;revision -->
<g id="edge31" class="edge">
<title>revise&#45;&gt;revision</title>
<path fill="none" stroke="#52606d" d="M800.56,-1430.97C806.89,-1414.54 816.61,-1389.32 824.27,-1369.44"/>
<polygon fill="#52606d" stroke="#52606d" points="826.74,-1370.33 826.99,-1362.38 821.84,-1368.44 826.74,-1370.33"/>
<text text-anchor="middle" x="828" y="-1385" font-family="Noto Sans CJK SC" font-size="10.00">接受</text>
</g>
<!-- revise&#45;&gt;stop -->
<g id="edge30" class="edge">
<title>revise&#45;&gt;stop</title>
<path fill="none" stroke="#52606d" d="M775.72,-1430.97C755.66,-1412.28 723.37,-1382.2 701.22,-1361.56"/>
<polygon fill="#52606d" stroke="#52606d" points="702.82,-1359.46 695.54,-1356.27 699.24,-1363.3 702.82,-1359.46"/>
<text text-anchor="middle" x="741" y="-1385" font-family="Noto Sans CJK SC" font-size="10.00">拒绝</text>
</g>
<!-- revision&#45;&gt;execute -->
<g id="edge32" class="edge">
<title>revision&#45;&gt;execute</title>
<path fill="none" stroke="#52606d" d="M852.4,-1313.72C880.85,-1273.36 939.01,-1190.84 967.51,-1150.39"/>
<polygon fill="#52606d" stroke="#52606d" points="969.81,-1151.69 971.99,-1144.04 965.52,-1148.66 969.81,-1151.69"/>
</g>
</g>
</svg>
